{
  "accessors": [
    {
      "bufferView": 3,
      "componentType": 5126,
      "count": 354,
      "max": [
        6.021897315979004,
        11.853554725646973,
        1.4773362874984741
      ],
      "min": [
        -6.032060623168945,
        -0.010102931410074234,
        -0.9815181493759155
      ],
      "type": "VEC3"
    },
    {
      "bufferView": 3,
      "byteOffset": 4248,
      "componentType": 5126,
      "count": 354,
      "max": [
        1.0,
        1.0,
        1.0
      ],
      "min": [
        -1.0,
        -1.0,
        -1.0
      ],
      "type": "VEC3"
    },
    {
      "bufferView": 2,
      "componentType": 5126,
      "count": 354,
      "max": [
        0.875,
        1.0
      ],
      "min": [
        0.125,
        0.0
      ],
      "type": "VEC2"
    },
    {
      "bufferView": 1,
      "componentType": 5125,
      "count": 588,
      "type": "SCALAR"
    },
    {
      "bufferView": 5,
      "componentType": 5126,
      "count": 31,
      "max": [
        15.000001907348633,
        99.9999771118164,
        40.53757858276367,
        0.0,
        18.437334060668945,
        100.00000762939453,
        98.28619384765625,
        0.0,
        100.00001525878906,
        89.78755187988281,
        64.27857971191406,
        0.0,
        55.005165100097656,
        521.309814453125,
        813.046142578125,
        1.0
      ],
      "min": [
        -96.46495056152344,
        -100.00000762939453,
        -100.00211334228516,
        0.0,
        -20.209999084472656,
        -99.986328125,
        -99.99884033203125,
        0.0,
        -99.99823760986328,
        -11.505319595336914,
        -8.6146879196167,
        0.0,
        -55.80571365356445,
        -988.6071166992188,
        -68.6893081665039,
        1.0
      ],
      "type": "MAT4"
    },
    {
      "bufferView": 0,
      "componentType": 5123,
      "count": 354,
      "type": "VEC4"
    },
    {
      "bufferView": 4,
      "componentType": 5126,
      "count": 354,
      "max": [
        1.0,
        0.49869656562805176,
        0.19959384202957153,
        0.04586178436875343
      ],
      "min": [
        0.45250841975212097,
        0.0,
        0.0,
        0.0
      ],
      "type": "VEC4"
    }
  ],
  "asset": {
    "extras": {
      "author": "Liam Pillay (https://sketchfab.com/makestuffstudio)",
      "license": "CC-BY-4.0 (http://creativecommons.org/licenses/by/4.0/)",
      "source": "https://sketchfab.com/3d-models/cc0-block-man-auto-rigged-humanoid-55571b5d47614b4c9973e853fc6b6a72",
      "title": "CC0 Block Man Auto Rigged Humanoid"
    },
    "generator": "Sketchfab-12.65.0",
    "version": "2.0"
  },
  "bufferViews": [
    {
      "buffer": 0,
      "byteLength": 2832,
      "byteStride": 8,
      "name": "shortBufferViews",
      "target": 34962
    },
    {
      "buffer": 0,
      "byteLength": 2352,
      "byteOffset": 2832,
      "name": "floatBufferViews",
      "target": 34963
    },
    {
      "buffer": 0,
      "byteLength": 2832,
      "byteOffset": 5184,
      "byteStride": 8,
      "name": "floatBufferViews",
      "target": 34962
    },
    {
      "buffer": 0,
      "byteLength": 8496,
      "byteOffset": 8016,
      "byteStride": 12,
      "name": "floatBufferViews",
      "target": 34962
    },
    {
      "buffer": 0,
      "byteLength": 5664,
      "byteOffset": 16512,
      "byteStride": 16,
      "name": "floatBufferViews",
      "target": 34962
    },
    {
      "buffer": 0,
      "byteLength": 1984,
      "byteOffset": 22176,
      "name": "floatBufferViews"
    }
  ],
  "buffers": [
    {
      "byteLength": 24160,
      "uri": "scene.bin"
    }
  ],
  "materials": [
    {
      "doubleSided": true,
      "name": "Block_Man_Material",
      "pbrMetallicRoughness": {
        "baseColorFactor": [
          0.8,
          0.8,
          0.8,
          1.0
        ],
        "metallicFactor": 0.0,
        "roughnessFactor": 0.8211145618
      }
    }
  ],
  "meshes": [
    {
      "name": "Block Man_Block Man Material_0",
      "primitives": [
        {
          "attributes": {
            "JOINTS_0": 5,
            "NORMAL": 1,
            "POSITION": 0,
            "TEXCOORD_0": 2,
            "WEIGHTS_0": 6
          },
          "indices": 3,
          "material": 0,
          "mode": 4
        }
      ]
    }
  ],
  "nodes": [
    {
      "children": [
        1
      ],
      "matrix": [
        1.0,
        0.0,
        0.0,
        0.0,
        0.0,
        2.220446049250313e-16,
        -1.0,
        0.0,
        0.0,
        1.0,
        2.220446049250313e-16,
        0.0,
        0.0,
        0.0,
        0.0,
        1.0
      ],
      "name": "Sketchfab_model"
    },
    {
      "children": [
        2
      ],
      "matrix": [
        1.0,
        0.0,
        0.0,
        0.0,
        0.0,
        0.0,
        1.0,
        0.0,
        0.0,
        -1.0,
        0.0,
        0.0,
        0.0,
        0.0,
        0.0,
        1.0
      ],
      "name": "a26b5468656744308684d8764692c199.fbx"
    },
    {
      "children": [
        3
      ],
      "name": "RootNode"
    },
    {
      "children": [
        4
      ],
      "matrix": [
        0.15000000596046448,
        0.0,
        0.0,
        0.0,
        0.0,
        0.15000000596046248,
        2.4438103712524833e-08,
        0.0,
        0.0,
        -2.4438103712524833e-08,
        0.15000000596046248,
        0.0,
        0.0,
        0.0,
        0.0,
        1.0
      ],
      "name": "Armature"
    },
    {
      "children": [
        5,
        37,
        36
      ],
      "name": "Object_4"
    },
    {
      "children": [
        6
      ],
      "name": "_rootJoint"
    },
    {
      "children": [
        7,
        24,
        30
      ],
      "name": "Hips_01",
      "rotation": [
        -8.41169967316091e-05,
        -0.7071039080619812,
        -8.729424007469788e-05,
        0.7071096301078796
      ],
      "translation": [
        0.009356498718261719,
        559.132080078125,
        7.09262752532959
      ]
    },
    {
      "children": [
        8
      ],
      "name": "Spine_02",
      "rotation": [
        0.00012138670717831701,
        -5.039300503995037e-06,
        0.008124850690364838,
        0.9999669790267944
      ],
      "scale": [
        1.0,
        1.0000001192092896,
        1.0
      ],
      "translation": [
        -1.0790165662765503,
        66.41397094726563,
        6.366099114529788e-08
      ]
    },
    {
      "children": [
        9
      ],
      "name": "Chest_03",
      "rotation": [
        -3.2910357772308885e-10,
        1.509352712258938e-11,
        2.7939681679356454e-09,
        1.0
      ],
      "scale": [
        0.9999999403953552,
        0.9999999403953552,
        1.0
      ],
      "translation": [
        9.525616064820497e-07,
        77.4931869506836,
        -1.1131788824059186e-09
      ]
    },
    {
      "children": [
        10,
        14,
        19
      ],
      "name": "Upper Chest_04",
      "rotation": [
        3.379748703125074e-10,
        2.6662699825763525e-15,
        -3.725290298461914e-09,
        1.0
      ],
      "scale": [
        0.9999999403953552,
        0.9999999403953552,
        1.0
      ],
      "translation": [
        9.525623454464949e-07,
        88.5637435913086,
        6.626521553698694e-11
      ]
    },
    {
      "children": [
        11
      ],
      "name": "Neck_05",
      "rotation": [
        6.963482568345114e-10,
        2.2226234741573592e-11,
        -0.008122598752379417,
        0.9999670386314392
      ],
      "scale": [
        0.9999998807907104,
        0.9999999403953552,
        1.0
      ],
      "translation": [
        1.1909808108612197e-06,
        99.63416290283203,
        1.0202612088505703e-09
      ]
    },
    {
      "children": [
        12
      ],
      "name": "Head_06",
      "rotation": [
        -4.338065063419494e-12,
        2.7136751873210643e-18,
        4.421379635769439e-19,
        1.0
      ],
      "translation": [
        18.92766761779785,
        97.405029296875,
        -6.48914806333778e-07
      ]
    },
    {
      "children": [
        13
      ],
      "name": "Head_End_07",
      "rotation": [
        -1.756001155370072e-15,
        2.7258016551010917e-18,
        3.4733644793346653e-19,
        1.0
      ],
      "translation": [
        38.35086441040039,
        197.36004638671875,
        -1.3135859262547456e-06
      ]
    },
    {
      "name": "Head_End_end_026",
      "rotation": [
        7.112404631352472e-24,
        -1.6543612251060553e-24,
        0.0,
        1.0
      ],
      "translation": [
        -1.4210854715202004e-14,
        201.0516357421875,
        0.0
      ]
    },
    {
      "children": [
        15
      ],
      "name": "Left Shoulder_08",
      "rotation": [
        0.003919260110706091,
        -0.5452802181243896,
        0.8382412791252136,
        0.0023830255959182978
      ],
      "scale": [
        0.9999999403953552,
        1.000000238418579,
        1.0
      ],
      "translation": [
        -0.5944101810455322,
        70.30990600585938,
        -62.486698150634766
      ]
    },
    {
      "children": [
        16
      ],
      "name": "Left Upper Arm_09",
      "rotation": [
        -0.2071724385023117,
        0.005412736441940069,
        0.003540626959875226,
        0.9782830476760864
      ],
      "scale": [
        0.9999998807907104,
        1.0000001192092896,
        1.0
      ],
      "translation": [
        8.344650268554688e-07,
        140.113525390625,
        -7.987953722476959e-05
      ]
    },
    {
      "children": [
        17
      ],
      "name": "Left Lower Arm_010",
      "rotation": [
        -3.250380942176889e-08,
        -0.0005540644051507115,
        -3.3948663258343004e-07,
        0.9999999403953552
      ],
      "scale": [
        0.9999999403953552,
        1.0,
        0.9999999403953552
      ],
      "translation": [
        2.7724308893084526e-07,
        211.23582458496094,
        -2.7866046366398223e-05
      ]
    },
    {
      "children": [
        18
      ],
      "name": "Left Hand_011",
      "rotation": [
        1.995073688476623e-07,
        1.3969734258267863e-09,
        -1.3891532368859316e-10,
        1.0
      ],
      "translation": [
        -8.929491741582751e-07,
        152.96929931640625,
        -3.841422585537657e-05
      ]
    },
    {
      "name": "Left Hand_end_027",
      "rotation": [
        -2.150669592637872e-23,
        1.734723475976807e-18,
        1.3234889800848443e-23,
        1.0
      ],
      "translation": [
        0.0,
        152.96929931640625,
        0.0
      ]
    },
    {
      "children": [
        20
      ],
      "name": "Right Shoulder_012",
      "rotation": [
        0.8382636904716492,
        -0.001399792148731649,
        0.002343216212466359,
        0.5452582240104675
      ],
      "scale": [
        0.9999999403953552,
        1.0,
        1.0
      ],
      "translation": [
        -0.35850289463996887,
        70.30607604980469,
        62.48670196533203
      ]
    },
    {
      "children": [
        21
      ],
      "name": "Right Upper Arm_013",
      "rotation": [
        -0.2071976661682129,
        -0.00625738687813282,
        -0.0014626206830143929,
        0.9782781004905701
      ],
      "scale": [
        0.9999999403953552,
        0.9999999403953552,
        1.0
      ],
      "translation": [
        1.1920928955078125e-07,
        140.11351013183594,
        -4.25875186920166e-05
      ]
    },
    {
      "children": [
        22
      ],
      "name": "Right Lower Arm_014",
      "rotation": [
        -1.503316866546811e-07,
        0.0007698492845520377,
        2.3587753616993723e-07,
        0.9999997019767761
      ],
      "translation": [
        -3.256136551499367e-07,
        211.25067138671875,
        -2.6531197363510728e-06
      ]
    },
    {
      "children": [
        23
      ],
      "name": "Right Hand_015",
      "rotation": [
        -1.980040437166153e-11,
        3.2596174648347187e-09,
        3.1151992097022685e-09,
        1.0
      ],
      "translation": [
        6.664777174592018e-09,
        153.0568389892578,
        -7.954570173751563e-05
      ]
    },
    {
      "name": "Right Hand_end_028",
      "rotation": [
        3.680953725860973e-23,
        8.673617379884035e-19,
        -3.192718421117663e-41,
        1.0
      ],
      "translation": [
        8.881784197001252e-16,
        153.05694580078125,
        0.0
      ]
    },
    {
      "children": [
        25
      ],
      "name": "Left Upper Leg_016",
      "rotation": [
        5.081540803075768e-05,
        -0.012518699280917645,
        0.9999142289161682,
        -0.003877492854371667
      ],
      "scale": [
        0.9999876618385315,
        1.0,
        0.9998722672462463
      ],
      "translation": [
        -5.575957298278809,
        -36.95537567138672,
        -52.779850006103516
      ]
    },
    {
      "children": [
        26
      ],
      "name": "Left Lower Leg_017",
      "rotation": [
        0.025185953825712204,
        -0.0013342642923817039,
        -0.0445990152657032,
        0.9986865520477295
      ],
      "scale": [
        0.9999999403953552,
        1.0,
        1.0
      ],
      "translation": [
        -2.1443702280521393e-07,
        220.17254638671875,
        -1.9610159540661698e-07
      ]
    },
    {
      "children": [
        27
      ],
      "name": "Left Foot_018",
      "rotation": [
        0.26513245701789856,
        -0.7152506709098816,
        0.3578663170337677,
        0.5385656952857971
      ],
      "scale": [
        1.0,
        0.9999997019767761,
        0.9999999403953552
      ],
      "translation": [
        -7.748603820800781e-07,
        211.7242431640625,
        -1.4081597328186035e-06
      ]
    },
    {
      "children": [
        28
      ],
      "name": "Left Toe_019",
      "rotation": [
        0.36118578910827637,
        -0.1191815659403801,
        0.04660206288099289,
        0.9236713647842407
      ],
      "translation": [
        5.6791468523442745e-06,
        135.8515167236328,
        2.0116567611694336e-06
      ]
    },
    {
      "children": [
        29
      ],
      "name": "Left Toe_End_020",
      "rotation": [
        -5.346373654901981e-07,
        2.6086345314979553e-06,
        -9.473296103124085e-08,
        1.0
      ],
      "scale": [
        1.0000001192092896,
        1.0,
        1.0
      ],
      "translation": [
        -1.1874362826347351e-06,
        57.733070373535156,
        -5.997717380523682e-07
      ]
    },
    {
      "name": "Left Toe_End_end_029",
      "rotation": [
        -6.938893903907228e-18,
        1.0408340855860843e-17,
        -2.7755575615628914e-17,
        1.0
      ],
      "translation": [
        -7.105427357601002e-15,
        57.73286437988281,
        -1.7763568394002505e-15
      ]
    },
    {
      "children": [
        31
      ],
      "name": "Right Upper Leg_021",
      "rotation": [
        6.61820886307396e-05,
        0.01258014515042305,
        0.9996134638786316,
        -0.024792997166514397
      ],
      "scale": [
        1.000030279159546,
        1.0,
        1.0000075101852417
      ],
      "translation": [
        -7.533364772796631,
        -36.955387115478516,
        52.779842376708984
      ]
    },
    {
      "children": [
        32
      ],
      "name": "Right Lower Leg_022",
      "rotation": [
        -0.02500055357813835,
        0.0022587240673601627,
        -0.08242132514715195,
        0.9962813854217529
      ],
      "scale": [
        1.0000001192092896,
        0.9999999403953552,
        0.9999999403953552
      ],
      "translation": [
        -2.726912498474121e-06,
        220.25637817382813,
        -3.125518560409546e-06
      ]
    },
    {
      "children": [
        33
      ],
      "name": "Right Foot_023",
      "rotation": [
        0.37454134225845337,
        -0.5387313365936279,
        0.2830328345298767,
        0.699556827545166
      ],
      "scale": [
        0.9999999403953552,
        0.9999999403953552,
        0.9999998807907104
      ],
      "translation": [
        8.344650268554688e-07,
        212.67088317871094,
        -3.300607204437256e-06
      ]
    },
    {
      "children": [
        34
      ],
      "name": "Right Toe_024",
      "rotation": [
        0.3516227602958679,
        0.1339200735092163,
        -0.050890859216451645,
        0.9251145720481873
      ],
      "scale": [
        0.9999999403953552,
        0.9999999403953552,
        1.0
      ],
      "translation": [
        3.075459972023964e-06,
        139.21975708007813,
        -1.1995434761047363e-05
      ]
    },
    {
      "children": [
        35
      ],
      "name": "Right Toe_End_025",
      "rotation": [
        1.0698567365352574e-07,
        -1.3957731425762177e-05,
        -3.734458005055785e-07,
        1.0
      ],
      "scale": [
        1.0,
        1.0000001192092896,
        1.0
      ],
      "translation": [
        -9.780385880731046e-06,
        58.15011978149414,
        -5.76837919652462e-08
      ]
    },
    {
      "name": "Right Toe_End_end_00",
      "rotation": [
        6.938893903907228e-18,
        -2.42861286636753e-17,
        1.6851887013388314e-34,
        1.0
      ],
      "translation": [
        0.0,
        58.15092086791992,
        0.0
      ]
    },
    {
      "matrix": [
        15.000001481668182,
        -1.1174175673037828e-07,
        -5.364312669719595e-08,
        0.0,
        -5.364312637280149e-08,
        1.6840592675999478e-07,
        -15.000001741758478,
        0.0,
        1.1174175732814844e-07,
        15.000001481066194,
        1.6840592343357498e-07,
        0.0,
        -5.728545339894753e-07,
        -2.974875897621132e-06,
        1.8583365735125312e-08,
        1.0
      ],
      "name": "Object_36"
    },
    {
      "mesh": 0,
      "name": "Object_37",
      "skin": 0
    }
  ],
  "scene": 0,
  "scenes": [
    {
      "name": "Sketchfab_Scene",
      "nodes": [
        0
      ]
    }
  ],
  "skins": [
    {
      "inverseBindMatrices": 4,
      "joints": [
        5,
        6,
        7,
        8,
        9,
        10,
        11,
        12,
        13,
        14,
        15,
        16,
        17,
        18,
        19,
        20,
        21,
        22,
        23,
        24,
        25,
        26,
        27,
        28,
        29,
        30,
        31,
        32,
        33,
        34,
        35
      ],
      "skeleton": 5
    }
  ]
}
