{
  "accessors": [
    {
      "bufferView": 1,
      "componentType": 5126,
      "count": 11066,
      "max": [
        0.8328019976615906,
        -8.847960472106934,
        -8.65604019165039
      ],
      "min": [
        -9.474859237670898,
        -11.006400108337402,
        -17.79660987854004
      ],
      "type": "VEC3"
    },
    {
      "bufferView": 1,
      "byteOffset": 132792,
      "componentType": 5126,
      "count": 11066,
      "max": [
        0.9997852444648743,
        0.9999428987503052,
        0.9999531507492065
      ],
      "min": [
        -0.99977707862854,
        -0.9999666810035706,
        -0.9999114274978638
      ],
      "type": "VEC3"
    },
    {
      "bufferView": 0,
      "componentType": 5125,
      "count": 58332,
      "type": "SCALAR"
    },
    {
      "bufferView": 1,
      "byteOffset": 265584,
      "componentType": 5126,
      "count": 6101,
      "max": [
        3.010200023651123,
        -9.468159675598145,
        -9.107359886169434
      ],
      "min": [
        -7.398285865783691,
        -11.039199829101563,
        -18.069910049438477
      ],
      "type": "VEC3"
    },
    {
      "bufferView": 1,
      "byteOffset": 338796,
      "componentType": 5126,
      "count": 6101,
      "max": [
        0.9995633363723755,
        0.999977171421051,
        0.9996199011802673
      ],
      "min": [
        -0.9989232420921326,
        -0.999989926815033,
        -0.9993994235992432
      ],
      "type": "VEC3"
    },
    {
      "bufferView": 0,
      "byteOffset": 233328,
      "componentType": 5125,
      "count": 32580,
      "type": "SCALAR"
    }
  ],
  "asset": {
    "extras": {
      "author": "Novaky (https://sketchfab.com/Novaky)",
      "license": "CC-BY-4.0 (http://creativecommons.org/licenses/by/4.0/)",
      "source": "https://sketchfab.com/3d-models/hand-skeletonskin-e24e96b6bc39423b871b10f098876b8f",
      "title": "Hand Skeleton&Skin"
    },
    "generator": "Sketchfab-12.66.0",
    "version": "2.0"
  },
  "bufferViews": [
    {
      "buffer": 0,
      "byteLength": 363648,
      "name": "floatBufferViews",
      "target": 34963
    },
    {
      "buffer": 0,
      "byteLength": 412008,
      "byteOffset": 363648,
      "byteStride": 12,
      "name": "floatBufferViews",
      "target": 34962
    }
  ],
  "buffers": [
    {
      "byteLength": 775656,
      "uri": "scene.bin"
    }
  ],
  "materials": [
    {
      "doubleSided": true,
      "name": "material_0",
      "pbrMetallicRoughness": {
        "metallicFactor": 0.0,
        "roughnessFactor": 0.6
      }
    }
  ],
  "meshes": [
    {
      "name": "Object_0",
      "primitives": [
        {
          "attributes": {
            "NORMAL": 1,
            "POSITION": 0
          },
          "indices": 2,
          "material": 0,
          "mode": 4
        }
      ]
    },
    {
      "name": "Object_1",
      "primitives": [
        {
          "attributes": {
            "NORMAL": 4,
            "POSITION": 3
          },
          "indices": 5,
          "material": 0,
          "mode": 4
        }
      ]
    }
  ],
  "nodes": [
    {
      "children": [
        1
      ],
      "matrix": [
        1.0,
        0.0,
        0.0,
        0.0,
        0.0,
        2.220446049250313e-16,
        -1.0,
        0.0,
        0.0,
        1.0,
        2.220446049250313e-16,
        0.0,
        0.0,
        0.0,
        0.0,
        1.0
      ],
      "name": "Sketchfab_model"
    },
    {
      "children": [
        2,
        3
      ],
      "name": "Hand Skeleton&Skin.obj.cleaner.materialmerger.gles"
    },
    {
      "mesh": 0,
      "name": "Object_2"
    },
    {
      "mesh": 1,
      "name": "Object_3"
    }
  ],
  "scene": 0,
  "scenes": [
    {
      "name": "Sketchfab_Scene",
      "nodes": [
        0
      ]
    }
  ]
}
